<?xml version="1.0" encoding="iso-8859-1"?>
<!-- Generator: Adobe Illustrator 19.0.0, SVG Export Plug-In . SVG Version: 6.00 Build 0)  -->
<svg version="1.1" id="Capa_1" xmlns="http://www.w3.org/2000/svg" xmlns:xlink="http://www.w3.org/1999/xlink" x="0px" y="0px"
	 viewBox="0 0 512.002 512.002" style="enable-background:new 0 0 512.002 512.002;" xml:space="preserve">
<path style="fill:#D8FB93;" d="M137.089,103.165l14.451,23.846l9.909-15.271v-2.787c0-27.965,4.963-55.656,14.597-81.806
	C138.591,54.866,137.089,103.165,137.089,103.165z"/>
<path style="fill:#A0E557;" d="M144.066,262.002h33.491l10.569-49.813c4.919-30.961,13.434-75.924,24.347-115.687
	C171.413,141.716,146.945,200.151,144.066,262.002z"/>
<path style="fill:#62CD4D;" d="M61.94,58.584c19.816,39.549,33.709,81.679,41.307,125.038l19.244,40.125l10.371-41.1l0,0
	C132.863,131.357,105.61,84.299,61.94,58.584z"/>
<path style="fill:#A0E557;" d="M40.83,154.127c16.703,33.194,28.424,68.565,34.85,104.977l25.593-0.362l0,0
	C101.273,215.35,78.019,175.563,40.83,154.127z"/>
<path style="fill:#62CD4D;" d="M252.498,145.095c-28.062,33.59-47.552,73.709-56.497,116.907l0,0h21.708
	c17.639-35.042,29.182-72.832,34.133-111.749L252.498,145.095z"/>
<polygon style="fill:#FF5D5D;" points="372.501,366.002 405.846,502.002 468.657,502.002 502.001,366.002 "/>
<polygon style="fill:#FFB9B7;" points="370.001,366.002 383.241,420.002 488.762,420.002 502.001,366.002 "/>
<path style="fill:#FFB954;" d="M258.001,427.502v-165.5H76.223v165.5c0,41.145,33.354,74.5,74.5,74.5h32.778
	C224.646,502.002,258.001,468.648,258.001,427.502z"/>
<rect x="76.221" y="262.002" style="fill:#FEDA9B;" width="181.78" height="45"/>
<path style="fill:#36D28F;" d="M437.834,282.145c0-12.288-4.108-24.224-11.671-33.909l0,0c-5.14-6.583-11.53-11.703-18.599-15.266
	c-10.334,5.354-18.874,14.1-23.884,25.252l-0.053,0.119c-5.503,12.171-6.58,26.298-2.178,39.785l0,0
	c3.813,11.682,11.421,21.754,21.615,28.615l34.771,23.402L437.834,282.145z"/>
<path style="fill:#B2F0BF;" d="M420.443,140.241c0-6.265-2.094-12.35-5.95-17.287l0,0c-2.328-2.981-5.167-5.355-8.296-7.127
	c-10.934,6.771-15.961,20.184-11.922,32.561l0,0c1.944,5.956,5.822,11.09,11.02,14.588l15.149,10.196L420.443,140.241z"/>
<path style="fill:#36D28F;" d="M475.101,172.856c-1.162-0.587-2.344-1.1-3.538-1.558c-6.236,2.379-11.895,6.425-16.247,12l0,0
	c-5.171,6.624-7.979,14.787-7.978,23.19l0.004,35.501l6.824,10.856l23.569-15.868c6.971-4.693,12.173-11.582,14.779-19.571l0,0
	C498.104,200.27,490.764,181.625,475.101,172.856z"/>
<path d="M357.447,243.241c-3.477,0-6.854-1.815-8.698-5.052c-2.733-4.799-1.059-10.905,3.74-13.639l0.528-0.299
	c4.823-2.695,10.914-0.978,13.61,3.842c2.698,4.819,0.978,10.913-3.841,13.61l-0.399,0.225
	C360.826,242.818,359.124,243.241,357.447,243.241z"/>
<path d="M196.001,317.002c-2.63,0-5.21-1.07-7.07-2.93s-2.93-4.44-2.93-7.07s1.069-5.21,2.93-7.07c1.86-1.86,4.44-2.93,7.07-2.93
	s5.21,1.07,7.069,2.93c1.86,1.86,2.931,4.44,2.931,7.07s-1.07,5.21-2.931,7.07C201.211,315.932,198.631,317.002,196.001,317.002z"/>
<path d="M258.001,252.002h-24.475c14.316-31.929,23.805-65.657,28.236-100.487l4.159-32.69c0.531-4.175-1.608-8.235-5.352-10.158
	c-3.746-1.924-8.291-1.295-11.374,1.568l-3.346,3.107c-13.921,12.931-26.344,27.097-37.179,42.292
	c8.781-42.155,20.071-84.765,32.344-111.514l0.051-0.111c1.895-4.134,0.761-9.026-2.76-11.905
	c-3.519-2.879-8.538-3.021-12.216-0.345c-19.866,14.461-37.74,31.645-53.065,50.859c2.791-23.629,9.275-46.901,19.188-68.436
	c1.775-3.858,0.921-8.416-2.131-11.369c-3.053-2.952-7.635-3.656-11.434-1.753l-18.491,9.267
	c-28.781,14.423-48.685,40.68-55.092,71.28C91.289,65.755,74.391,52.831,55.261,43.689L28.34,30.822
	c-3.916-1.872-8.6-1.002-11.582,2.156c-2.983,3.158-3.586,7.88-1.492,11.686l1.798,3.269c18.441,33.52,32.376,69.065,41.634,106.009
	c-6.792-5.065-14.081-9.497-21.808-13.19l-22.577-10.79c-3.919-1.874-8.601-1.002-11.582,2.157
	c-2.982,3.158-3.585,7.881-1.49,11.687l1.507,2.74c18.198,33.077,31.154,68.513,38.596,105.456H10.001c-5.522,0-10,4.477-10,10
	v165.5c0,46.594,37.907,84.5,84.5,84.5h99c46.594,0,84.5-37.907,84.5-84.5v-165.5C268.001,256.479,263.524,252.002,258.001,252.002z
	 M242.376,145.425l-0.454,3.566c-4.562,35.86-14.805,70.481-30.448,103.011h-25.89C195.802,212.227,215.168,175.925,242.376,145.425
	z M209.122,72.332c-16.342,51.649-27.354,116.147-30.872,138.289c-0.009,0.057-0.01,0.114-0.019,0.171
	c-5.447,13.286-9.876,27.051-13.238,41.211H133.16C133.615,184.176,161.413,119.398,209.122,72.332z M164.146,30.909
	c-8.349,25.12-12.697,51.667-12.697,78.044v2.787c0,0.627,0.065,1.239,0.176,1.834c-3.039,5.109-5.927,10.307-8.623,15.604
	c-2.035,3.998-3.964,8.05-5.797,12.144c-3.424-12.293-8.373-24.154-14.78-35.316c0.267-0.901,0.416-1.854,0.416-2.841
	C122.839,73.131,138.527,45.938,164.146,30.909z M46.637,61.734c45.957,21.964,75.76,68.883,76.205,119.762
	c-6.251,22.956-9.541,46.72-9.689,70.506h-2.073c-1.148-22.343-7.975-43.997-19.954-63c-2.008-3.186-4.162-6.261-6.422-9.245
	c-7.38-40.995-20.146-80.58-38.07-118.025L46.637,61.734z M32.416,160.89c33.92,18.024,56.27,52.856,58.636,91.112H61.734
	C55.714,220.455,45.891,189.928,32.416,160.89z M248.001,427.502c0,35.565-28.935,64.5-64.5,64.5h-99
	c-35.565,0-64.5-28.934-64.5-64.5v-110.5h137.5c5.522,0,10-4.477,10-10s-4.478-10-10-10h-137.5v-25h152.933c0.039,0,0.078,0,0.117,0
	h44.615c0.011,0,0.023,0.002,0.034,0.002c0.01,0,0.019-0.002,0.028-0.002h30.273V427.502z"/>
<path d="M509.87,359.831c-1.896-2.417-4.797-3.829-7.869-3.829h-54.166l-0.002-73.857c0-4.101-0.408-8.182-1.177-12.188
	l36.664-24.685c8.778-5.91,15.42-14.706,18.7-24.765c7.039-21.579-2.229-45.289-22.035-56.377c-0.124-0.069-0.249-0.136-0.376-0.2
	c-16.08-8.123-35.041-6.289-49.166,3.755l-0.001-27.444c0-8.453-2.865-16.778-8.068-23.441
	c-11.159-14.292-31.004-18.73-47.191-10.55c-0.127,0.064-0.253,0.131-0.377,0.201c-15.821,8.86-23.221,27.803-17.596,45.041l0,0
	c2.622,8.036,7.929,15.062,14.942,19.782l39.142,26.344c-0.556,2.917-0.851,5.888-0.85,8.873l0.002,16.734
	c-6.372-2.987-13.257-4.957-20.473-5.765c-5.481-0.615-10.437,3.337-11.05,8.826c-0.614,5.489,3.337,10.436,8.825,11.05
	c9.713,1.087,18.579,5.177,25.591,11.686c0.152,0.154,0.314,0.296,0.476,0.439c1.591,1.52,3.084,3.164,4.464,4.931
	c6.16,7.89,9.553,17.747,9.553,27.755l0.003,73.855h-12.387l-55.801-37.556c-8.303-5.588-14.586-13.907-17.692-23.422
	c-3.498-10.719-2.865-22.284,1.783-32.563c2.275-5.032,0.04-10.956-4.992-13.231c-5.033-2.276-10.957-0.041-13.232,4.992
	c-6.709,14.838-7.622,31.532-2.571,47.009c4.483,13.735,13.553,25.742,25.537,33.808l31.149,20.963h-67.628
	c-3.071,0-5.973,1.412-7.868,3.828s-2.575,5.57-1.844,8.553l33.345,136c1.097,4.473,5.106,7.619,9.712,7.619h123.311
	c4.605,0,8.615-3.145,9.712-7.619l33.345-136C512.445,365.401,511.765,362.247,509.87,359.831z M470.402,181.686
	c11.369,6.48,16.669,20.162,12.605,32.62c-1.905,5.84-5.761,10.945-10.856,14.376l-32.51,21.888
	c-1.639-2.963-3.503-5.807-5.597-8.489c-1.143-1.464-2.351-2.857-3.596-4.204l-0.003-31.391c-0.001-6.142,2.08-12.191,5.86-17.035
	C444.368,179.123,458.677,175.878,470.402,181.686z M383.321,154.681c-3.331-2.242-5.852-5.579-7.097-9.395l0,0
	c-2.649-8.117,0.784-17.03,8.17-21.281c7.651-3.754,16.963-1.626,22.217,5.104c2.471,3.165,3.832,7.119,3.832,11.133l0.001,32.695
	L383.321,154.681z M460.812,492.002H353.191l-28.441-116h87.647h25.438h51.418l-8.336,34H370.334c-5.522,0-10,4.477-10,10
	s4.478,10,10,10h105.679L460.812,492.002z"/>
<g>
</g>
<g>
</g>
<g>
</g>
<g>
</g>
<g>
</g>
<g>
</g>
<g>
</g>
<g>
</g>
<g>
</g>
<g>
</g>
<g>
</g>
<g>
</g>
<g>
</g>
<g>
</g>
<g>
</g>
</svg>
