<svg xmlns="http://www.w3.org/2000/svg" height="512pt" version="1.1" viewBox="0 0 512 512" width="512pt">
<g id="surface1">
<path d="M 512 256 C 512 397.386719 397.386719 512 256 512 C 114.613281 512 0 397.386719 0 256 C 0 114.613281 114.613281 0 256 0 C 397.386719 0 512 114.613281 512 256 Z M 512 256 " style=" stroke:none;fill-rule:nonzero;fill:rgb(99.215686%,95.294118%,52.156863%);fill-opacity:1;" />
<path d="M 257.828125 219.738281 C 238.355469 240.46875 209.234375 246.226562 184.394531 237.027344 C 170.6875 231.953125 155.503906 231.953125 141.800781 237.027344 C 116.957031 246.226562 87.839844 240.46875 68.367188 219.738281 C 43.996094 193.796875 43.863281 152.875 68.066406 126.773438 C 76.554688 117.625 86.910156 111.363281 97.960938 107.957031 C 101.355469 96.933594 107.597656 86.597656 116.714844 78.125 C 142.710938 53.957031 183.484375 53.957031 209.480469 78.125 C 218.597656 86.597656 224.839844 96.933594 228.234375 107.957031 C 239.285156 111.363281 249.640625 117.625 258.125 126.773438 C 282.328125 152.875 282.199219 193.792969 257.828125 219.738281 Z M 257.828125 219.738281 " style=" stroke:none;fill-rule:nonzero;fill:rgb(96.078431%,75.294118%,17.254902%);fill-opacity:1;" />
<path d="M 387.570312 176.78125 C 375.617188 189.507812 357.742188 193.042969 342.496094 187.394531 C 334.082031 184.28125 324.761719 184.28125 316.347656 187.394531 C 301.101562 193.039062 283.226562 189.507812 271.273438 176.78125 C 256.3125 160.855469 256.230469 135.738281 271.089844 119.71875 C 276.300781 114.101562 282.65625 110.257812 289.4375 108.167969 C 291.523438 101.402344 295.355469 95.054688 300.949219 89.855469 C 316.90625 75.019531 341.9375 75.019531 357.894531 89.855469 C 363.492188 95.054688 367.320312 101.402344 369.40625 108.167969 C 376.191406 110.257812 382.546875 114.101562 387.757812 119.71875 C 402.613281 135.738281 402.53125 160.855469 387.570312 176.78125 Z M 387.570312 176.78125 " style=" stroke:none;fill-rule:nonzero;fill:rgb(80.784314%,77.254902%,19.215686%);fill-opacity:1;" />
<path d="M 330 34.285156 C 330 48.464844 316.542969 60 300 60 C 294.476562 60 290 56.160156 290 51.429688 C 290 46.695312 294.476562 42.855469 300 42.855469 C 305.515625 42.855469 310 39.011719 310 34.285156 C 310 32.140625 309.539062 30.089844 308.695312 28.199219 C 304.421875 18.609375 291.429688 17.070312 284.4375 24.902344 C 271.628906 39.253906 271.464844 58.261719 285.96875 72.703125 C 287.574219 74.300781 288.933594 76.058594 289.996094 77.960938 C 297.4375 91.25 287.566406 106.375 268.015625 110.789062 C 251.441406 114.53125 233.21875 108.882812 225.820312 97.71875 C 219.882812 88.761719 222.125 78.738281 230.128906 71.625 C 236.308594 66.132812 240.984375 59.835938 242.933594 52.941406 C 247.476562 36.84375 264 0 290 0 C 312.054688 0 330 15.382812 330 34.285156 Z M 330 34.285156 " style=" stroke:none;fill-rule:nonzero;fill:rgb(58.039216%,55.294118%,6.27451%);fill-opacity:1;" />
<path d="M 351 170 C 351 225.230469 331.078125 270 306.5 270 C 297.121094 270 288.425781 263.476562 281.25 252.347656 C 274.074219 263.476562 265.378906 270 256 270 C 246.621094 270 237.925781 263.476562 230.75 252.347656 C 223.574219 263.476562 214.878906 270 205.5 270 C 180.921875 270 161 225.230469 161 170 C 161 114.769531 180.921875 70 205.5 70 C 212.546875 70 219.210938 73.683594 225.128906 80.234375 C 228.160156 83.589844 233.339844 83.589844 236.371094 80.234375 C 242.289062 73.683594 248.953125 70 256 70 C 263.046875 70 269.710938 73.683594 275.628906 80.234375 C 278.660156 83.589844 283.839844 83.589844 286.871094 80.234375 C 292.789062 73.683594 299.453125 70 306.5 70 C 331.078125 70 351 114.769531 351 170 Z M 351 170 " style=" stroke:none;fill-rule:nonzero;fill:rgb(98.823529%,70.196078%,4.313725%);fill-opacity:1;" />
<path d="M 180.28125 252.394531 C 168.636719 234.359375 161 204.1875 161 170 C 161 114.769531 180.921875 70 205.5 70 C 212.46875 70 219.058594 73.605469 224.929688 80.019531 C 224.785156 80.015625 224.644531 80 224.5 80 C 199.921875 80 180 149.394531 180 235 C 180 240.882812 180.097656 246.683594 180.28125 252.394531 Z M 180.28125 252.394531 " style=" stroke:none;fill-rule:nonzero;fill:rgb(98.823529%,57.647059%,0.784314%);fill-opacity:1;" />
<path d="M 308.886719 79.796875 C 329.074219 80.863281 346.179688 156.1875 337.835938 159.847656 C 329.636719 163.445312 286.105469 102.574219 299.933594 84.390625 C 300.101562 84.167969 303.742188 79.527344 308.886719 79.796875 Z M 308.886719 79.796875 " style=" stroke:none;fill-rule:nonzero;fill:rgb(99.215686%,79.607843%,41.960784%);fill-opacity:1;" />
<path d="M 157.023438 160.792969 C 150.585938 171.945312 142.042969 179.714844 135.488281 181.140625 C 129.09375 183.183594 117.816406 180.722656 106.664062 174.285156 C 92.03125 165.839844 83.1875 153.761719 86.914062 147.308594 C 90.058594 141.863281 101.15625 142.1875 113.339844 147.496094 C 111.035156 133.839844 113.578125 122.457031 119.824219 120.78125 C 125.964844 119.136719 133.683594 127.40625 138.535156 140 C 146.285156 129.898438 155.351562 124.5 160.636719 127.554688 C 167.089844 131.277344 165.46875 146.160156 157.023438 160.792969 Z M 157.023438 160.792969 " style=" stroke:none;fill-rule:nonzero;fill:rgb(58.039216%,55.294118%,6.27451%);fill-opacity:1;" />
<path d="M 236.3125 190.371094 C 249.890625 241.050781 219.816406 293.144531 169.136719 306.722656 C 118.457031 320.304688 66.363281 290.226562 52.785156 239.546875 C 39.207031 188.867188 77.046875 165.753906 127.726562 152.175781 C 178.40625 138.59375 222.730469 139.691406 236.3125 190.371094 Z M 236.3125 190.371094 " style=" stroke:none;fill-rule:nonzero;fill:rgb(73.72549%,0%,23.137255%);fill-opacity:1;" />
<path d="M 236.3125 190.371094 C 241.457031 209.574219 240.328125 228.976562 234.195312 246.414062 C 222.34375 257.417969 207.292969 265.957031 189.996094 270.59375 C 139.316406 284.171875 88.566406 259.105469 76.640625 214.601562 C 71.246094 194.460938 76.121094 179.003906 87.773438 166.859375 C 99.382812 160.867188 113.011719 156.117188 127.726562 152.175781 C 178.40625 138.59375 222.730469 139.691406 236.3125 190.371094 Z M 236.3125 190.371094 " style=" stroke:none;fill-rule:nonzero;fill:rgb(89.019608%,0%,28.235294%);fill-opacity:1;" />
<path d="M 169.5 164.5 C 170.808594 160.148438 185.746094 159.300781 197 164.5 C 211.378906 171.144531 219.1875 187.421875 216 191 C 210.546875 197.125 167.066406 172.59375 169.5 164.5 Z M 169.5 164.5 " style=" stroke:none;fill-rule:nonzero;fill:rgb(99.215686%,1.568627%,39.215686%);fill-opacity:1;" />
<path d="M 447.78125 295.707031 C 420.269531 348.527344 360.753906 371.964844 314.847656 348.054688 C 268.9375 324.144531 254.027344 261.941406 281.535156 209.121094 C 293.367188 186.40625 311.117188 169.128906 331.160156 158.714844 C 347.851562 150.035156 362 135.0625 371.097656 116.785156 C 371.320312 116.335938 371.546875 115.890625 371.78125 115.441406 C 389.0625 82.257812 425.691406 67.132812 453.59375 81.664062 C 481.492188 96.195312 490.097656 134.878906 472.8125 168.0625 C 472.578125 168.511719 472.34375 168.953125 472.101562 169.394531 C 462.339844 187.328125 458.179688 207.5 460.640625 226.152344 C 463.59375 248.542969 459.613281 272.992188 447.78125 295.707031 Z M 447.78125 295.707031 " style=" stroke:none;fill-rule:nonzero;fill:rgb(50.588235%,21.960784%,45.098039%);fill-opacity:1;" />
<path d="M 301.566406 219.554688 C 313.398438 196.839844 331.148438 179.5625 351.1875 169.144531 C 367.882812 160.46875 382.027344 145.496094 391.125 127.21875 C 391.347656 126.769531 391.578125 126.320312 391.808594 125.875 C 406.96875 96.765625 437.011719 81.558594 462.992188 88.0625 C 483.214844 105.621094 487.972656 138.957031 472.8125 168.0625 C 472.578125 168.511719 472.34375 168.953125 472.101562 169.394531 C 462.339844 187.328125 458.179688 207.5 460.640625 226.152344 C 463.59375 248.546875 459.613281 272.992188 447.78125 295.707031 C 422.300781 344.628906 369.371094 368.335938 325.222656 352.578125 C 287.003906 325.433594 276.089844 268.472656 301.566406 219.554688 Z M 301.566406 219.554688 " style=" stroke:none;fill-rule:nonzero;fill:rgb(60%,27.058824%,52.941176%);fill-opacity:1;" />
<path d="M 436.320312 187.316406 C 432.96875 169.675781 445.183594 149.292969 454.820312 149.480469 C 458.660156 149.558594 462.550781 152.90625 463.820312 156.648438 C 466.121094 163.433594 458.589844 167.9375 454.152344 180.316406 C 448.796875 195.257812 453.609375 205.878906 450.152344 206.984375 C 446.679688 208.09375 438.433594 198.449219 436.320312 187.316406 Z M 436.320312 187.316406 " style=" stroke:none;fill-rule:nonzero;fill:rgb(76.078431%,39.607843%,68.235294%);fill-opacity:1;" />
<path d="M 481.824219 144.34375 C 473.417969 146.988281 461.796875 134.183594 454.992188 115.285156 C 445.09375 131.824219 431.976562 141.699219 424.382812 137.746094 C 416.789062 133.792969 417.363281 117.382812 425.242188 99.789062 C 405.855469 105.050781 388.699219 102.867188 386.050781 94.460938 C 383.242188 85.539062 397.839844 72.988281 418.65625 66.429688 C 428.167969 63.433594 437.328125 62.210938 444.746094 62.613281 C 446.511719 60.230469 448.925781 58.308594 451.839844 57.085938 C 455.113281 55.71875 457.722656 53.863281 459.597656 51.574219 C 462.890625 47.554688 466.75 44.140625 471.019531 41.398438 C 475.792969 38.328125 482.179688 40.53125 484.03125 45.894531 C 484.054688 45.960938 484.074219 46.027344 484.097656 46.089844 C 485.175781 49.207031 484.40625 52.671875 482.101562 55.027344 C 478.082031 59.140625 476.03125 64.972656 477.003906 71.039062 C 477.226562 72.425781 477.277344 73.839844 477.152344 75.238281 C 477.003906 76.96875 476.574219 78.640625 475.917969 80.210938 C 479.863281 85.839844 483.46875 93.191406 486.101562 101.558594 C 492.660156 122.375 490.746094 141.53125 481.824219 144.34375 Z M 481.824219 144.34375 " style=" stroke:none;fill-rule:nonzero;fill:rgb(80.784314%,77.254902%,19.215686%);fill-opacity:1;" />
<path d="M 470.703125 220 C 475.769531 220 480.042969 223.78125 480.640625 228.808594 C 481.539062 236.347656 482 244.007812 482 251.765625 C 482 366.769531 380.816406 460 256 460 C 131.183594 460 30 366.769531 30 251.765625 C 30 244.007812 30.460938 236.347656 31.359375 228.808594 C 31.957031 223.78125 36.230469 220 41.296875 220 Z M 470.703125 220 " style=" stroke:none;fill-rule:nonzero;fill:rgb(66.27451%,41.568627%,31.764706%);fill-opacity:1;" />
<path d="M 480.640625 228.808594 C 480.042969 223.78125 475.769531 220 470.703125 220 L 79.296875 220 C 74.230469 220 69.957031 224.253906 69.359375 229.910156 C 69.003906 233.253906 68.738281 236.617188 68.523438 240 L 130 240 C 135.523438 240 140 244.476562 140 250 C 140 255.523438 135.523438 260 130 260 L 68.058594 260 C 68.355469 277.183594 70.433594 293.910156 74.113281 310 L 100 310 C 105.523438 310 110 314.476562 110 320 C 110 325.523438 105.523438 330 100 330 L 79.617188 330 C 92.9375 371.316406 117.046875 407.515625 148.496094 434.976562 C 180.46875 450.933594 217.085938 460 256 460 C 380.816406 460 482 366.769531 482 251.765625 C 482 244.007812 481.539062 236.347656 480.640625 228.808594 Z M 220 240 L 280 240 C 285.523438 240 290 244.476562 290 250 C 290 255.523438 285.523438 260 280 260 L 220 260 C 214.476562 260 210 255.523438 210 250 C 210 244.476562 214.476562 240 220 240 Z M 140 270 L 170 270 C 175.523438 270 180 274.476562 180 280 C 180 285.523438 175.523438 290 170 290 L 140 290 C 134.476562 290 130 285.523438 130 280 C 130 274.476562 134.476562 270 140 270 Z M 170 360 L 140 360 C 134.476562 360 130 355.523438 130 350 C 130 344.476562 134.476562 340 140 340 L 170 340 C 175.523438 340 180 344.476562 180 350 C 180 355.523438 175.523438 360 170 360 Z M 180 320 C 180 314.476562 184.476562 310 190 310 L 240 310 C 245.523438 310 250 314.476562 250 320 C 250 325.523438 245.523438 330 240 330 L 190 330 C 184.476562 330 180 325.523438 180 320 Z M 300 370 L 240 370 C 234.476562 370 230 365.523438 230 360 C 230 354.476562 234.476562 350 240 350 L 300 350 C 305.523438 350 310 354.476562 310 360 C 310 365.523438 305.523438 370 300 370 Z M 300 280 C 300 274.476562 304.476562 270 310 270 L 340 270 C 345.523438 270 350 274.476562 350 280 C 350 285.523438 345.523438 290 340 290 L 310 290 C 304.476562 290 300 285.523438 300 280 Z M 380 340 L 330 340 C 324.476562 340 320 335.523438 320 330 C 320 324.476562 324.476562 320 330 320 L 380 320 C 385.523438 320 390 324.476562 390 330 C 390 335.523438 385.523438 340 380 340 Z M 430 300 C 430 305.523438 425.523438 310 420 310 L 400 310 C 394.476562 310 390 305.523438 390 300 C 390 294.476562 394.476562 290 400 290 L 420 290 C 425.523438 290 430 294.476562 430 300 Z M 440 260 L 400 260 C 394.476562 260 390 255.523438 390 250 C 390 244.476562 394.476562 240 400 240 L 440 240 C 445.523438 240 450 244.476562 450 250 C 450 255.523438 445.523438 260 440 260 Z M 440 260 " style=" stroke:none;fill-rule:nonzero;fill:rgb(73.333333%,48.627451%,38.823529%);fill-opacity:1;" />
<path d="M 474.15625 390 C 429.101562 463.191406 348.253906 512 256 512 C 163.746094 512 82.898438 463.191406 37.84375 390 L 375.445312 390 L 366.710938 368.167969 C 366.035156 366.476562 367.6875 364.832031 368.875 366.015625 L 391.085938 388.207031 L 404.546875 346.597656 C 405.113281 344.84375 407.203125 345.277344 407.28125 347.160156 L 409.035156 390 L 411.894531 390 L 437.882812 372.128906 C 439.214844 371.210938 440.613281 373.183594 439.714844 374.707031 L 430.679688 390 Z M 474.15625 390 " style=" stroke:none;fill-rule:nonzero;fill:rgb(32.54902%,44.313725%,29.803922%);fill-opacity:1;" />
<path d="M 360 437 C 360 445.285156 353.285156 452 345 452 L 184.820312 452 C 176.535156 452 169.820312 458.714844 169.820312 467 C 169.820312 475.285156 176.535156 482 184.820312 482 L 262.335938 482 C 270.617188 482 277.335938 488.714844 277.335938 497 C 277.335938 504.601562 271.671875 510.867188 264.339844 511.851562 C 261.570312 511.941406 258.792969 512 256 512 C 177.960938 512 108.085938 477.066406 61.132812 422 L 345 422 C 353.285156 422 360 428.714844 360 437 Z M 360 437 " style=" stroke:none;fill-rule:nonzero;fill:rgb(29.803922%,40%,27.058824%);fill-opacity:1;" />
<path d="M 63.21875 350.261719 C 59.148438 325.347656 77.890625 304.480469 104.109375 304.726562 L 106.8125 304.753906 C 151.148438 302.46875 171.765625 360.238281 179.914062 371.726562 C 208.914062 412.585938 242.53125 426.320312 239.847656 428.996094 C 192.765625 476.023438 35.597656 458.476562 25.9375 399.308594 L 25.746094 398.476562 C 20.03125 373.699219 37.203125 351.601562 63.21875 350.261719 Z M 63.21875 350.261719 " style=" stroke:none;fill-rule:nonzero;fill:rgb(80.784314%,77.254902%,19.215686%);fill-opacity:1;" />
<path d="M 231.269531 436.074219 C 176.171875 473.996094 35.074219 455.269531 25.9375 399.304688 L 25.746094 398.472656 C 23.0625 386.832031 25.429688 375.785156 31.394531 367.199219 C 31.546875 368.035156 31.710938 368.875 31.902344 369.71875 L 32.140625 370.738281 C 41.046875 425.285156 152.003906 451.035156 231.269531 436.074219 Z M 47.878906 345.375 C 50.304688 348.714844 49.394531 352.996094 45.933594 354.71875 C 44.824219 355.269531 43.75 355.867188 42.714844 356.511719 C 43.9375 358.117188 58.195312 368.917969 60 370 C 68.429688 375.0625 104.359375 389.390625 110 380 C 115.640625 370.609375 75 365 67.6875 326.582031 C 67.625 326.246094 67.101562 326.242188 66.804688 326.089844 C 66.78125 326.128906 66.765625 326.167969 66.746094 326.203125 C 64.40625 330.824219 57.316406 330.683594 54.359375 325.867188 C 49.265625 317.570312 44.945312 308.910156 41.503906 299.953125 C 39.753906 295.414062 34.453125 292.773438 29.855469 294.269531 C 25.621094 295.644531 23.773438 300.207031 25.417969 304.449219 C 30.992188 318.867188 38.585938 332.59375 47.878906 345.375 Z M 47.878906 345.375 " style=" stroke:none;fill-rule:nonzero;fill:rgb(74.117647%,70.588235%,9.411765%);fill-opacity:1;" />
<path d="M 100.097656 322.527344 C 101.40625 318.179688 116.347656 317.328125 127.597656 322.527344 C 141.976562 329.175781 149.785156 345.449219 146.597656 349.027344 C 141.144531 355.15625 97.664062 330.621094 100.097656 322.527344 Z M 100.097656 322.527344 " style=" stroke:none;fill-rule:nonzero;fill:rgb(87.058824%,85.098039%,50.196078%);fill-opacity:1;" />
</g>
</svg>