<?xml version="1.0" encoding="utf-8"?>
<!-- Generator: Adobe Illustrator 16.0.4, SVG Export Plug-In . SVG Version: 6.00 Build 0)  -->
<!DOCTYPE svg PUBLIC "-//W3C//DTD SVG 1.1//EN" "http://www.w3.org/Graphics/SVG/1.1/DTD/svg11.dtd">
<svg version="1.1" id="Layer_1" xmlns="http://www.w3.org/2000/svg" xmlns:xlink="http://www.w3.org/1999/xlink" x="0px" y="0px"
	 width="34.464px" height="33.694px" viewBox="0 0 34.464 33.694" enable-background="new 0 0 34.464 33.694" xml:space="preserve">
<path fill="none" stroke="#4D4D4D" stroke-width="1.44" stroke-linecap="round" stroke-linejoin="round" stroke-miterlimit="22.9256" d="
	M22.122,3.534c0.777,0,1.535,0.09,2.265,0.259l0.272,2.88c0.584,0.174,1.142,0.406,1.668,0.69l2.229-1.844
	c0.637,0.397,1.235,0.87,1.785,1.42c0.549,0.549,1.021,1.148,1.418,1.784l-1.844,2.229c0.285,0.526,0.518,1.084,0.691,1.668
	l2.88,0.272c0.169,0.73,0.259,1.488,0.259,2.266c0,0.776-0.09,1.534-0.259,2.265l-2.88,0.272c-0.174,0.583-0.406,1.142-0.691,1.668
	l1.844,2.229c-0.396,0.636-0.869,1.235-1.418,1.784c-0.55,0.55-1.148,1.022-1.785,1.419l-2.229-1.843
	c-0.526,0.284-1.084,0.517-1.668,0.69l-0.272,2.88c-0.729,0.169-1.487,0.258-2.265,0.258s-1.535-0.089-2.266-0.258l-0.272-2.88
	c-0.583-0.174-1.142-0.406-1.667-0.69l-2.229,1.843c-0.636-0.396-1.235-0.869-1.785-1.419c-0.549-0.549-1.021-1.148-1.419-1.784
	l1.844-2.229c-0.284-0.526-0.517-1.085-0.691-1.668l-2.879-0.272c-0.169-0.73-0.259-1.488-0.259-2.265
	c0-0.777,0.09-1.535,0.259-2.266l2.879-0.272c0.174-0.583,0.407-1.142,0.691-1.668l-1.844-2.229c0.397-0.636,0.87-1.235,1.419-1.784
	c0.55-0.55,1.149-1.022,1.785-1.42l2.229,1.844c0.526-0.284,1.084-0.517,1.667-0.69l0.272-2.88
	C20.586,3.624,21.344,3.534,22.122,3.534L22.122,3.534z"/>
<path fill="none" stroke="#4D4D4D" stroke-width="1.44" stroke-linecap="round" stroke-linejoin="round" stroke-miterlimit="22.9256" d="
	M22.122,10.484c2.58,0,4.673,2.092,4.673,4.674c0,2.58-2.093,4.673-4.673,4.673c-2.581,0-4.674-2.093-4.674-4.673
	C17.448,12.576,19.541,10.484,22.122,10.484L22.122,10.484z"/>
<line fill="none" stroke="#4D4D4D" stroke-width="1.44" stroke-linecap="round" stroke-linejoin="round" stroke-miterlimit="22.9256" x1="20.596" y1="10.739" x2="20.596" y2="19.519"/>
<path fill="none" stroke="#4D4D4D" stroke-width="1.44" stroke-linecap="round" stroke-linejoin="round" stroke-miterlimit="22.9256" d="
	M20.596,27.575v2.837c0,1.409-1.152,2.562-2.562,2.562H3.283c-1.41,0-2.563-1.153-2.563-2.562V3.283c0-1.41,1.153-2.562,2.563-2.562
	h14.75c1.41,0,2.562,1.153,2.562,2.562"/>
<path fill="none" stroke="#4D4D4D" stroke-width="1.44" stroke-linecap="round" stroke-linejoin="round" stroke-miterlimit="22.9256" d="
	M17.44,24.609c0,0.962-0.787,1.748-1.749,1.748H5.625c-0.961,0-1.749-0.786-1.749-1.748V6.095c0-0.962,0.787-1.749,1.749-1.749
	h10.067c0.962,0,1.749,0.787,1.749,1.749"/>
<line fill="none" stroke="#4D4D4D" stroke-width="1.44" stroke-linecap="round" stroke-linejoin="round" stroke-miterlimit="22.9256" x1="6.63" y1="29.606" x2="14.687" y2="29.606"/>
</svg>
