<?xml version="1.0" encoding="utf-8"?>
<!-- Generator: Adobe Illustrator 16.0.4, SVG Export Plug-In . SVG Version: 6.00 Build 0)  -->
<!DOCTYPE svg PUBLIC "-//W3C//DTD SVG 1.1//EN" "http://www.w3.org/Graphics/SVG/1.1/DTD/svg11.dtd">
<svg version="1.1" id="Layer_1" xmlns="http://www.w3.org/2000/svg" xmlns:xlink="http://www.w3.org/1999/xlink" x="0px" y="0px"
	 width="34.322px" height="34.667px" viewBox="0 0 34.322 34.667" enable-background="new 0 0 34.322 34.667" xml:space="preserve">
<path fill="none" stroke="#4D4D4D" stroke-width="1.44" stroke-linecap="round" stroke-linejoin="round" stroke-miterlimit="22.9256" d="
	M19.939,13.543H3.335v10.57c8.164,0,12.432,0,16.604,0V13.543L19.939,13.543z"/>
<path fill="none" stroke="#4D4D4D" stroke-width="1.44" stroke-linecap="round" stroke-linejoin="round" stroke-miterlimit="22.9256" d="
	M20.507,16.049c6.413,0,7.96,0,12.886,0V0.72H9.415v12.209"/>
<line fill="none" stroke="#4D4D4D" stroke-width="1.44" stroke-linecap="round" stroke-linejoin="round" stroke-miterlimit="22.9256" x1="21.693" y1="19.694" x2="21.693" y2="16.297"/>
<line fill="none" stroke="#4D4D4D" stroke-width="1.44" stroke-linecap="round" stroke-linejoin="round" stroke-miterlimit="22.9256" x1="20.371" y1="20.268" x2="27.33" y2="20.268"/>
<path fill="none" stroke="#4D4D4D" stroke-width="1.44" stroke-linecap="round" stroke-linejoin="round" stroke-miterlimit="22.9256" d="
	M27.437,23.002h5.436c0.401,0,0.73,0.33,0.73,0.73v9.484c0,0.4-0.329,0.73-0.73,0.73h-5.436c-0.401,0-0.73-0.328-0.73-0.73v-9.484
	C26.706,23.332,27.034,23.002,27.437,23.002L27.437,23.002z"/>
<line fill="none" stroke="#4D4D4D" stroke-width="1.44" stroke-linecap="round" stroke-linejoin="round" stroke-miterlimit="22.9256" x1="23.261" y1="19.708" x2="23.261" y2="16.311"/>
<path fill="none" stroke="#4D4D4D" stroke-width="1.44" stroke-linecap="round" stroke-linejoin="round" stroke-miterlimit="22.9256" d="
	M0.72,27.436c7.55,0,17.975,0,21.834,0"/>
</svg>
